<?xml version="1.0" encoding="UTF-8"?>
<svg width="158px" height="30px" viewBox="0 0 158 30" version="1.1" xmlns="http://www.w3.org/2000/svg" xmlns:xlink="http://www.w3.org/1999/xlink">
    <!-- Generator: Sketch 44.1 (41455) - http://www.bohemiancoding.com/sketch -->
    <title>logotype</title>
    <desc>Created with Sketch.</desc>
    <defs>
        <polygon id="path-1" points="19.7221818 0.0893939394 6.06060606e-05 0.0893939394 6.06060606e-05 29.0759697 19.7221818 29.0759697"></polygon>
        <polygon id="path-3" points="22.9145152 0.0893939394 0.278757576 0.0893939394 0.278757576 29.4898788 22.9145152 29.4898788 22.9145152 0.0893939394"></polygon>
        <polygon id="path-5" points="18.9426364 0.0893939394 0.117181818 0.0893939394 0.117181818 29.075697 18.9426364 29.075697"></polygon>
    </defs>
    <g id="Desktop" stroke="none" stroke-width="1" fill="none" fill-rule="evenodd">
        <g id="Homepage-" transform="translate(-80.000000, -35.000000)">
            <g id="logotype" transform="translate(80.000000, 35.000000)">
                <g id="Group-3" transform="translate(0.000000, 0.213667)">
                    <mask id="mask-2" fill="white">
                        <use xlink:href="#path-1"></use>
                    </mask>
                    <g id="Clip-2"></g>
                    <path d="M6.49945455,17.8953636 L8.06824242,17.8953636 C10.4282424,17.8953636 12.2512727,17.2323333 13.5367273,15.9074848 C14.8209697,14.5823333 15.464,12.4156667 15.464,9.40627273 C15.464,6.39778788 14.8209697,4.23021212 13.5367273,2.90536364 C12.2512727,1.58021212 10.4282424,0.917484848 8.06824242,0.917484848 L6.49945455,0.917484848 L6.49945455,17.8953636 Z M6.49945455,18.7232424 L6.49945455,28.0405152 L9.18884848,28.6617273 L9.18884848,29.0759697 L6.06060606e-05,29.0759697 L6.06060606e-05,28.6617273 L2.68945455,28.0405152 L2.68945455,1.12445455 L6.06060606e-05,0.503545455 L6.06060606e-05,0.0893030303 L8.06824242,0.0893030303 C9.92066667,0.0893030303 11.5712727,0.324151515 13.0209697,0.793242424 C14.4700606,1.26293939 15.6879394,1.91142424 16.674303,2.73960606 C17.6603636,3.56778788 18.4146061,4.54809091 18.9376364,5.67960606 C19.4603636,6.8120303 19.7221818,8.05415152 19.7221818,9.40627273 C19.7221818,10.759303 19.4603636,12.0017273 18.9376364,13.1332424 C18.4146061,14.2653636 17.6603636,15.2450606 16.674303,16.0732424 C15.6879394,16.9017273 14.4700606,17.5505152 13.0209697,18.0196061 C11.5712727,18.489303 9.92066667,18.7232424 8.06824242,18.7232424 L6.49945455,18.7232424 Z" id="Fill-1" fill="#221F20" mask="url(#mask-2)"></path>
                </g>
                <path d="M44.1503939,7.54972727 C44.1503939,5.47912121 43.5522121,3.89215152 42.3573636,2.78760606 C41.1619091,1.68366667 39.4440303,1.13124242 37.2028182,1.13124242 L35.4097879,1.13124242 L35.4097879,13.9682121 L37.2028182,13.9682121 C39.4440303,13.9682121 41.1619091,13.4160909 42.3573636,12.3118485 C43.5522121,11.2079091 44.1503939,9.6200303 44.1503939,7.54972727 L44.1503939,7.54972727 Z M37.2028182,0.303060606 C39.1146364,0.303060606 40.7731212,0.496393939 42.1782727,0.882757576 C43.5822121,1.26972727 44.7479697,1.79366667 45.6743333,2.45639394 C46.6000909,3.11881818 47.2879697,3.88487879 47.7361515,4.75457576 C48.1846364,5.62427273 48.4085758,6.55578788 48.4085758,7.54972727 C48.4085758,8.35093939 48.281,9.06093939 48.0276667,9.68215152 C47.7734242,10.3033636 47.4449394,10.8557879 47.0416061,11.3385152 C46.6379697,11.8221515 46.1673636,12.2288182 45.6294848,12.5600303 C45.0916061,12.8915455 44.5537273,13.1676061 44.0158485,13.3885152 C42.730697,13.9130606 41.2816061,14.2442727 39.6679697,14.3821515 C40.9825152,14.5206364 42.1782727,14.8103333 43.2540303,15.2518485 C44.1797879,15.6385152 45.0467576,16.2042727 45.8537273,16.9494242 C46.6603939,17.6948788 47.1379697,18.7030606 47.2879697,19.9724545 L48.1846364,27.2188182 C48.2440303,27.7436667 48.3785758,28.1163939 48.5879697,28.337303 C48.7967576,28.5582121 49.0361515,28.6682121 49.3049394,28.6682121 C49.4540303,28.6682121 49.611,28.6203333 49.7755455,28.5233636 C49.9394848,28.427 50.0964545,28.3100303 50.2461515,28.1712424 C50.3955455,28.0336667 50.5297879,27.8542727 50.6497879,27.6327576 L51.0979697,28.047303 C50.9185758,28.4060909 50.6643333,28.7239697 50.3358485,28.9994242 C50.0670606,29.2209394 49.7155455,29.427303 49.2828182,29.6206364 C48.8491818,29.8136667 48.3337273,29.9106364 47.7361515,29.9106364 C46.7197879,29.9106364 45.890697,29.6412424 45.2485758,29.1030606 C44.6055455,28.5648788 44.2400909,27.937 44.1503939,27.2188182 L43.2540303,19.9724545 C43.1340303,19.0342727 42.9400909,18.2403333 42.671303,17.5912424 C42.4022121,16.9430606 42.0358485,16.4109394 41.5731212,15.997 C41.1094848,15.5830606 40.5197879,15.2794242 39.8025152,15.0860909 C39.0855455,14.8930606 38.2182727,14.7960909 37.2028182,14.7960909 L35.4097879,14.7960909 L35.4097879,28.2542727 L38.0991818,28.8754848 L38.0991818,29.2894242 L28.9103939,29.2894242 L28.9103939,28.8754848 L31.5997879,28.2542727 L31.5997879,1.33821212 L28.9103939,0.71730303 L28.9103939,0.303060606 L37.2028182,0.303060606 Z" id="Fill-4" fill="#221F20"></path>
                <polygon id="Fill-6" fill="#221F20" points="66.337303 28.2543333 69.026697 28.8755455 69.026697 29.2894848 59.8379091 29.2894848 59.8379091 28.8755455 62.527303 28.2543333 62.527303 1.33827273 59.8379091 0.717060606 59.8379091 0.303121212 69.026697 0.303121212 69.026697 0.717060606 66.337303 1.33827273"></polygon>
                <g id="Group-10" transform="translate(78.787879, 0.213667)">
                    <mask id="mask-4" fill="white">
                        <use xlink:href="#path-3"></use>
                    </mask>
                    <g id="Clip-9"></g>
                    <polygon id="Fill-8" fill="#221F20" mask="url(#mask-4)" points="19.1045152 1.53866667 16.1911818 0.503515152 16.1911818 0.0892727273 22.9145152 0.0892727273 22.9145152 0.503515152 20.0011818 1.53866667 20.0011818 29.4898788 19.3287576 29.4898788 4.08906061 3.60927273 4.08906061 27.6262424 7.00209091 28.661697 7.00209091 29.0759394 0.278757576 29.0759394 0.278757576 28.661697 3.19239394 27.6262424 3.19239394 1.33139394 0.278757576 0.503515152 0.278757576 0.0892727273 6.3299697 0.0892727273 19.1045152 21.8289697"></polygon>
                </g>
                <path d="M122.769,28.2543333 L125.458697,28.8755455 L125.458697,29.2894848 L116.269909,29.2894848 L116.269909,28.8755455 L118.959,28.2543333 L118.959,1.13130303 L114.252636,1.13130303 C114.252636,2.29069697 113.998697,3.36736364 113.490818,4.361 C112.982333,5.35493939 112.339909,6.211 111.563242,6.92857576 L111.115061,6.92857576 C111.144758,6.56978788 111.174455,6.19736364 111.204758,5.81039394 C111.234152,5.47918182 111.264152,5.12706061 111.294455,4.75463636 C111.323848,4.38190909 111.339,4.00251515 111.339,3.61584848 C111.339,3.09160606 111.323848,2.62918182 111.294455,2.22857576 C111.264152,1.82857576 111.234152,1.47675758 111.204758,1.17251515 C111.174455,0.84130303 111.144758,0.551606061 111.115061,0.303121212 L130.613242,0.303121212 C130.552939,0.551606061 130.508091,0.84130303 130.478697,1.17251515 C130.448697,1.47675758 130.426273,1.82857576 130.411424,2.22857576 C130.396273,2.62918182 130.389,3.09160606 130.389,3.61584848 C130.389,4.00251515 130.396273,4.38190909 130.411424,4.75463636 C130.426273,5.12706061 130.448697,5.47918182 130.478697,5.81039394 C130.508091,6.19736364 130.552939,6.56978788 130.613242,6.92857576 L130.164758,6.92857576 C129.387788,6.211 128.745364,5.35493939 128.237485,4.361 C127.729,3.36736364 127.475667,2.29069697 127.475667,1.13130303 L122.769,1.13130303 L122.769,28.2543333 Z" id="Fill-11" fill="#221F20"></path>
                <g id="Group-15" transform="translate(138.787879, 0.213667)">
                    <mask id="mask-6" fill="white">
                        <use xlink:href="#path-5"></use>
                    </mask>
                    <g id="Clip-14"></g>
                    <path d="M4.59960606,28.2475152 L15.8053636,28.2475152 C15.8053636,27.0881212 16.058697,26.0114545 16.5671818,25.0175152 C17.0750606,24.0238788 17.7171818,23.1684242 18.4947576,22.4502424 L18.9426364,22.4502424 C18.8829394,22.8093333 18.8374848,23.1820606 18.808697,23.5684242 C18.7780909,23.8993333 18.7559697,24.2587273 18.7411212,24.6450909 C18.7256667,25.0320606 18.718697,25.4044848 18.718697,25.7629697 C18.718697,26.2878182 18.7256667,26.7505455 18.7411212,27.1502424 C18.7559697,27.5508485 18.7780909,27.9026667 18.808697,28.206 C18.8374848,28.5375152 18.8829394,28.8272121 18.9426364,29.075697 L0.117181818,29.075697 L14.4605152,0.917515152 L4.59960606,0.917515152 C4.59960606,2.07690909 4.34506061,3.15357576 3.83718182,4.14751515 C3.32930303,5.14115152 2.68687879,5.99721212 1.91021212,6.71478788 L1.4620303,6.71478788 C1.49142424,6.35630303 1.52142424,5.98357576 1.55142424,5.59660606 C1.58081818,5.26539394 1.61112121,4.91327273 1.64112121,4.54115152 C1.67051515,4.16812121 1.68627273,3.7890303 1.68627273,3.40206061 C1.68627273,2.87812121 1.67051515,2.41539394 1.64112121,2.01478788 C1.61112121,1.61509091 1.58081818,1.2629697 1.55142424,0.959030303 C1.52142424,0.627515152 1.49142424,0.337818182 1.4620303,0.0893333333 L18.9426364,0.0893333333 L4.59960606,28.2475152 Z" id="Fill-13" fill="#221F20" mask="url(#mask-6)"></path>
                </g>
            </g>
        </g>
    </g>
</svg>